HIERARCHY
ROOT Hips
{
  OFFSET -35.2597 29.1586 114.425
  CHANNELS 6 Xposition Yposition Zposition Zrotation Xrotation Yrotation
  JOINT LeftUpLeg
  {
    OFFSET 8.64259 1.95398 -2.38835
    CHANNELS 3 Zrotation Xrotation Yrotation
    JOINT LeftLeg
    {
      OFFSET 43.7702 0 0
      CHANNELS 3 Zrotation Xrotation Yrotation
      JOINT LeftFoot
      {
        OFFSET 40.6238 0 0
        CHANNELS 3 Zrotation Xrotation Yrotation
        JOINT LeftToeBase
        {
          OFFSET 12.7242 0 0
          CHANNELS 3 Zrotation Xrotation Yrotation
          End Site
          {
            OFFSET 0 0 0
          }
        }
      }
    }
  }
  JOINT RightUpLeg
  {
    OFFSET -8.2249 1.95398 -2.59336
    CHANNELS 3 Zrotation Xrotation Yrotation
    JOINT RightLeg
    {
      OFFSET 43.5653 0 0
      CHANNELS 3 Zrotation Xrotation Yrotation
      JOINT RightFoot
      {
        OFFSET 40.6238 0 0
        CHANNELS 3 Zrotation Xrotation Yrotation
        JOINT RightToeBase
        {
          OFFSET 12.7242 0 0
          CHANNELS 3 Zrotation Xrotation Yrotation
          End Site
          {
            OFFSET 0 0 0
          }
        }
      }
    }
  }
  JOINT Spine
  {
    OFFSET 0.165834 0.87714 6.61349
    CHANNELS 3 Zrotation Xrotation Yrotation
    JOINT Spine1
    {
      OFFSET 7.38963 1.71661e-005 0
      CHANNELS 3 Zrotation Xrotation Yrotation
      JOINT Spine2
      {
        OFFSET 11.9445 1.14441e-005 0
        CHANNELS 3 Zrotation Xrotation Yrotation
        JOINT Spine3
        {
          OFFSET 14.7254 4.19617e-005 0
          CHANNELS 3 Zrotation Xrotation Yrotation
          JOINT Spine4
          {
            OFFSET 10.9679 0 0
            CHANNELS 3 Zrotation Xrotation Yrotation
            JOINT RightShoulder
            {
              OFFSET 2.46616 -1.6653 3.69651
              CHANNELS 3 Zrotation Xrotation Yrotation
              JOINT RightArm
              {
                OFFSET 13.0012 0 0
                CHANNELS 3 Zrotation Xrotation Yrotation
                JOINT RightForeArm
                {
                  OFFSET 28.7848 1.62311e-005 0
                  CHANNELS 3 Zrotation Xrotation Yrotation
                  JOINT RightHand
                  {
                    OFFSET 26.5688 1.62095e-005 0
                    CHANNELS 3 Zrotation Xrotation Yrotation
                    End Site
                    {
                      OFFSET 0 0 0
                    }
                  }
                }
              }
            }
            JOINT LeftShoulder
            {
              OFFSET 2.38034 -1.29275 -3.7523
              CHANNELS 3 Zrotation Xrotation Yrotation
              JOINT LeftArm
              {
                OFFSET 16.3182 6.07031e-005 0
                CHANNELS 3 Zrotation Xrotation Yrotation
                JOINT LeftForeArm
                {
                  OFFSET 27.0901 0 0
                  CHANNELS 3 Zrotation Xrotation Yrotation
                  JOINT LeftHand
                  {
                    OFFSET 24.5451 1.51738e-005 0
                    CHANNELS 3 Zrotation Xrotation Yrotation
                    End Site
                    {
                      OFFSET 0 0 0
                    }
                  }
                }
              }
            }
            JOINT Neck
            {
              OFFSET 5.0226 -0.0266342 0
              CHANNELS 3 Zrotation Xrotation Yrotation
              JOINT Head
              {
                OFFSET 6.69364 2.86102e-005 0
                CHANNELS 3 Zrotation Xrotation Yrotation
                End Site
                {
                  OFFSET 0 0 0
                }
              }
            }
          }
        }
      }
    }
  }
}
MOTION
Frames:	12
Frame Time:	0.0416667
23.4431 99.6302 -329.191 91.9512 -87.9721 91.2761 -171.934 -3.77197 93.9803 -11.73 12.2153 -0.402251 69.9912 6.73369 -2.31226 34.4655 -0.235155 7.01025 175.309 -6.03219 92.8582 -11.7188 -1.21091 -0.0497639 73.8912 -9.97212 -1.21299 21.6722 1.10713 5.33823 -0.22534 7.90923 -90.2965 11.0538 -0.585994 -0.53353 -0.617141 -0.608913 -0.507219 -23.152 -0.398564 -0.684976 -3.13935 -0.398554 -0.684967 89.3453 -34.9748 -106.195 40.6657 10.4953 25.3441 -25.1455 -40.5226 -34.1595 -34.5741 10.4949 -38.6574 -87.3238 -55.7627 83.666 -35.9862 11.4162 17.7587 18.8353 4.60723 -74.5195 20.4001 11.7278 50.0241 15.0675 -0.807752 -4.62397 -2.57381 0.42175 2.99522 
23.4155 99.2634 -328.841 75.7346 -85.6057 73.4904 -173.793 -2.1851 91.7533 -13.0588 12.2206 0.534595 70.4157 7.98228 -1.65535 35.4581 0.246513 7.17885 173.905 -3.61492 91.2781 -14.717 -0.436534 0.563006 75.6543 -10.3546 -1.57444 22.1618 0.478641 6.57628 -0.510235 7.8224 -90.0901 11.229 -1.05736 -0.075012 -0.441488 -1.05964 -0.0284033 -22.9797 -0.985936 -0.389352 -2.96707 -0.985935 -0.389364 89.1839 -35.4366 -106.33 40.164 10.9173 31.6388 -28.6303 -38.4577 -39.7764 -35.0059 11.0503 -39.8874 -86.2669 -53.635 84.8598 -36.5005 4.35535 18.2433 31.1573 16.2722 -64.4716 37.4814 3.63613 0.630327 15.7533 -1.02483 -6.55161 -2.7304 0.751257 3.8195 
23.1534 98.7105 -328.07 74.4446 -84.9071 71.6972 -174.542 -0.586581 91.177 -15.7941 11.5592 0.875255 72.0098 10.5816 1.35924 35.8131 0.938289 6.00438 173.47 -2.42978 90.9668 -17.8017 0.250807 0.787255 77.8236 -10.923 -1.21983 22.502 0.794542 5.33083 -0.542236 7.85601 -90.1497 11.1611 -1.14873 -0.185618 -0.509349 -1.15578 -0.134881 -23.0479 -1.03983 -0.522308 -3.03522 -1.03982 -0.522309 89.8134 -34.3919 -105.528 40.6261 10.9459 36.4706 -31.1314 -37.207 -43.6322 -37.3782 11.2496 -38.1877 -84.9432 -54.5744 86.8917 -26.092 -10.23 8.90013 57.1323 36.5318 -69.7963 1.33847 -1.81773 -34.4383 16.6968 -0.752256 -4.5923 -2.64777 0.539224 2.45377 
22.7655 98.2225 -326.97 73.9147 -83.6114 71.2816 -174.513 2.60375 91.5431 -22.8961 11.3176 0.844137 72.466 10.7819 1.95049 35.8034 0.546258 6.92096 173.631 -2.68708 91.4802 -18.208 2.43896 1.02053 79.2486 -11.2013 0.170373 22.4631 0.44793 6.34954 -0.547692 7.86359 -90.2749 11.1451 -1.21779 -0.428588 -0.525366 -1.23547 -0.374577 -23.0635 -1.03268 -0.774796 -3.05088 -1.03268 -0.774798 89.7347 -33.866 -105.858 40.9592 11.146 39.6183 -34.0052 -38.3204 -46.2702 -41.1533 11.2477 -35.0221 -85.1086 -54.8457 86.6863 -25.8295 -9.48261 14.7619 56.4871 28.304 -73.3995 -1.65831 -0.33367 -38.5517 16.8917 -0.738852 -3.00374 -2.17327 0.123339 1.66977 
22.4312 97.9906 -325.975 77.6235 -79.7177 74.5561 -176.033 9.26997 90.4075 -33.6436 8.77811 1.88335 72.0398 9.58452 1.43687 34.2591 0.700985 4.59871 173.251 -3.58018 91.8911 -17.0343 5.28278 1.79767 79.52 -11.744 -1.29202 22.2785 0.416469 6.63323 -0.81185 7.89439 -90.3268 11.082 -1.76754 -0.479454 -0.58776 -1.78693 -0.401183 -23.13 -1.54172 -0.988605 -3.11732 -1.54172 -0.988615 89.5619 -33.6397 -106.261 40.4254 11.504 41.2281 -37.3931 -40.2447 -48.8262 -42.2648 11.6471 -35.1806 -84.8941 -53.8336 86.8736 -26.1302 -8.68549 20.3789 55.4216 22.1095 -76.3138 -1.30825 -0.444646 -41.1843 18.046 -1.48283 -3.39343 -2.14065 -0.455343 2.52477 
22.1891 97.5012 -324.746 78.8897 -76.1652 75.6218 -177.231 14.6493 89.4046 -42.4378 10.8006 2.44094 71.5729 9.80656 5.16389 32.6058 0.831872 2.34218 173.241 -4.20547 92.555 -16.7782 9.72957 2.37901 81.0308 -11.6486 -0.0174621 22.2883 1.10212 4.69467 -0.933098 7.95651 -90.4136 10.9559 -2.04907 -0.628067 -0.713495 -2.07472 -0.537245 -23.2577 -1.76556 -1.21499 -3.24502 -1.76557 -1.21501 88.5201 -34.3919 -107.93 40.9459 11.4132 41.9696 -34.9428 -38.2253 -47.3884 -45.2642 12.1902 -34.3114 -85.0524 -52.3767 86.4651 -26.8486 -7.28901 24.6464 54.5958 17.3893 -78.9009 -0.821508 -0.622887 -42.2084 19.3795 -2.56742 -4.23088 -1.31969 -1.18698 3.80201 
21.9317 97.0613 -323.213 76.886 -73.8786 73.4324 -177.511 20.2068 87.9511 -49.5568 8.49683 2.32317 72.3369 10.1254 5.69012 30.5086 0.434105 0.885084 173.647 -4.62233 93.1696 -15.6358 11.5829 2.45286 81.0281 -11.1958 0.0994276 23.4784 0.675376 4.60144 -0.863673 7.91001 -90.4786 11.0477 -1.94109 -0.765521 -0.621958 -1.9729 -0.679315 -23.164 -1.62128 -1.31359 -3.15135 -1.62128 -1.31359 88.5978 -34.773 -107.643 41.1905 10.9489 42.5081 -36.2974 -37.0795 -49.6352 -47.6921 12.1732 -32.6613 -85.1149 -51.9696 86.3222 -26.7696 -6.87538 30.2219 55.6146 12.6685 -82.521 0.884883 -1.19613 -41.9928 20.4963 -3.70738 -4.42364 -1.51174 -2.18635 4.3977 
21.6659 96.5409 -321.545 73.3228 -72.9351 69.9489 -176.615 25.5189 86.5379 -54.8042 5.81565 1.57254 73.2405 10.102 4.63551 29.8349 0.152858 0.774941 174.51 -5.54347 94.1026 -12.9379 11.35 2.04377 80.4141 -11.6344 -1.95345 24.6786 -0.433996 6.68494 -0.657464 7.8896 -90.6396 11.0863 -1.60542 -1.11756 -0.584093 -1.65305 -1.04582 -23.1204 -1.19536 -1.54837 -3.10777 -1.19536 -1.54837 88.5335 -33.9951 -108.055 41.139 9.95953 44.2989 -37.2703 -32.2642 -54.1644 -47.3475 12.0792 -32.6678 -84.8173 -53.3754 86.9295 -25.7334 -7.92183 34.4038 58.6512 9.22041 -85.6164 3.17597 -2.02061 -42.6138 22.3803 -4.38398 -2.61783 -2.30077 -3.38049 3.54709 
21.4836 96.211 -319.753 66.5039 -73.2114 63.068 -174.87 30.3945 84.66 -57.3879 4.32439 0.283699 73.5591 9.89907 3.07872 29.5497 0.223625 0.326224 174.928 -3.66441 94.8801 -14.1635 4.2047 1.31654 76.8614 -10.4463 -11.2051 31.6917 -0.404699 -3.07562 -0.284031 7.80011 -90.6652 11.2674 -0.874892 -1.23783 -0.403821 -0.928527 -1.19814 -22.9351 -0.462485 -1.4435 -2.92246 -0.462478 -1.44351 87.8307 -34.7573 -109.06 40.515 8.96233 44.2634 -34.2373 -25.7628 -56.6676 -50.953 12.3831 -31.1472 -85.3183 -53.0464 86.1605 -25.3491 -8.3988 39.6593 60.1868 6.28038 -87.737 6.0333 -3.04017 -42.9881 23.012 -5.31194 -2.74165 -1.9377 -4.19944 3.91472 
20.9732 96.0677 -317.608 60.2478 -74.1043 57.2033 -172.621 34.0385 83.5077 -58.2078 6.38258 -1.03202 73.6735 10.1541 3.51594 29.5955 0.347741 0.117561 175.048 0.165481 96.883 -21.3619 0.0896687 0.813142 64.798 2.18475 -16.1223 52.6998 -9.41775 -5.63785 0.124396 7.82289 -90.7556 11.226 -0.104044 -1.4955 -0.445781 -0.16975 -1.48947 -22.9743 0.350181 -1.45765 -2.96164 0.350181 -1.45765 87.5294 -35.009 -109.513 37.9184 8.17816 46.1913 -31.954 -16.8311 -64.816 -49.2023 11.7897 -30.7793 -84.819 -53.1568 86.9019 -24.4235 -10.002 42.9669 58.3019 5.34797 -88.0249 8.09561 -4.01037 -45.3882 24.3537 -5.80707 -2.25029 -1.95879 -4.80594 4.08561 
20.5295 95.2573 -315.569 50.0912 -74.3315 46.3015 -169.703 39.1376 80.5041 -59.0924 7.90433 -2.61225 74.5192 10.4689 3.03742 30.8677 0.13806 1.91721 174.458 6.0114 95.1774 -29.8898 -3.00537 0.454305 52.8332 15.625 -13.0813 72.7925 -17.8533 -2.97839 0.51198 7.73858 -90.6972 11.398 0.693419 -1.45718 -0.273578 0.628633 -1.48627 -22.8054 1.09927 -1.18146 -2.79278 1.09927 -1.18146 87.65 -35.5977 -109.065 33.3161 10.7285 40.4039 -34.9377 -17.5887 -66.6734 -55.3937 14.1111 -32.025 -84.9317 -53.0653 86.7266 -23.6393 -11.2131 48.455 58.6351 3.10226 -89.2772 10.9395 -5.19003 -46.1281 25.6892 -6.06406 -1.71111 -1.82718 -5.20579 4.29414 
20.822 94.4711 -312.907 55.4819 -75.3402 53.9176 -169.388 41.3271 80.5754 -60.9469 9.15592 -2.55518 75.8411 11.0617 3.64093 31.7156 0.626776 1.78851 174.968 1.63479 96.837 -26.2598 -1.60869 1.23372 35.1766 26.8166 -5.67401 93.0437 -23.4505 5.58385 0.65619 8.05043 -91.1199 10.7783 0.789897 -2.3035 -0.89445 0.687779 -2.33602 -23.4191 1.44556 -1.95983 -3.4065 1.44556 -1.95983 87.6951 -35.5501 -109.002 29.7448 12.2536 36.6557 -30.6533 -11.0997 -72.3911 -53.3114 15.271 -35.3801 -84.76 -54.043 87.0916 -22.2135 -13.2525 53.9001 59.1896 0.973014 -90.8833 12.5562 -5.99356 -47.2985 26.4246 -5.64457 0.163987 -1.63218 -5.46111 3.30115 
